<svg width="179" height="28" viewBox="0 0 179 28" fill="none" xmlns="http://www.w3.org/2000/svg">
<path d="M99.463 26.2175L99.0854 25.9239L102.315 10.487C102.567 9.39636 102.176 8.61333 101.141 8.13792L100.428 7.80234L100.47 7.38286L108.272 5.07571L108.65 5.4113L107.685 10.487C109.139 8.83706 110.621 7.53667 112.131 6.58584C113.641 5.60706 115.068 5.11766 116.41 5.11766C117.305 5.11766 118.046 5.39732 118.633 5.95662C119.221 6.48796 119.514 7.32693 119.514 8.47351C119.514 9.06078 119.458 9.67602 119.346 10.3192C119.234 10.9345 119.095 11.5777 118.927 12.2488L116.704 21.1838C116.592 21.6312 116.508 22.0087 116.452 22.3164C116.396 22.596 116.368 22.8477 116.368 23.0714C116.368 23.6587 116.606 23.9523 117.081 23.9523C117.864 23.9523 118.857 23.3231 120.059 22.0647L120.479 22.4842C119.78 23.5189 118.857 24.4557 117.71 25.2947C116.564 26.1336 115.291 26.5531 113.893 26.5531C112.97 26.5531 112.257 26.3434 111.754 25.9239C111.25 25.4764 110.999 24.8612 110.999 24.0782C110.999 23.4909 111.069 22.8897 111.208 22.2744C111.348 21.6312 111.502 20.974 111.67 20.3029L113.306 13.759C113.53 12.8641 113.711 12.0671 113.851 11.3679C113.991 10.6688 114.061 10.0256 114.061 9.43831C114.061 8.93494 113.949 8.58537 113.725 8.38961C113.502 8.16589 113.194 8.05403 112.802 8.05403C112.131 8.05403 111.334 8.34766 110.411 8.93493C109.517 9.52221 108.524 10.4451 107.433 11.7035L106.259 16.989C105.951 18.4711 105.657 19.9533 105.378 21.4355C105.098 22.9176 104.818 24.4138 104.539 25.9239L99.463 26.2175Z" fill="white"/>
<path d="M126.634 26.5531C124.537 26.5531 122.831 25.868 121.517 24.4977C120.202 23.1274 119.545 21.1838 119.545 18.6669C119.545 16.8771 119.853 15.1712 120.468 13.5492C121.083 11.9272 121.936 10.487 123.027 9.22857C124.145 7.94216 125.432 6.93541 126.886 6.20831C128.34 5.48121 129.92 5.11766 131.626 5.11766C133.388 5.11766 134.73 5.52316 135.653 6.33416C136.604 7.11719 137.079 8.16589 137.079 9.48026C137.079 10.5709 136.562 11.6476 135.527 12.7103C134.52 13.7729 133.094 14.7377 131.248 15.6047C129.403 16.4436 127.235 17.0868 124.747 17.5343C124.774 19.4639 125.194 20.8761 126.005 21.771C126.816 22.6659 127.935 23.1134 129.361 23.1134C130.563 23.1134 131.668 22.7918 132.675 22.1486C133.681 21.4774 134.534 20.6944 135.234 19.7995L135.653 20.0931C135.094 21.1838 134.367 22.2185 133.472 23.1973C132.605 24.1761 131.598 24.9871 130.451 25.6303C129.305 26.2455 128.032 26.5531 126.634 26.5531ZM131.332 6.25026C130.689 6.25026 129.99 6.52991 129.235 7.08922C128.508 7.64853 127.809 8.41757 127.138 9.39636C126.494 10.3472 125.949 11.4518 125.502 12.7103C125.082 13.9407 124.83 15.2551 124.747 16.6534C127.823 15.8144 130.004 14.7098 131.29 13.3395C132.605 11.9692 133.262 10.4171 133.262 8.68325C133.262 7.84429 133.08 7.22905 132.717 6.83753C132.353 6.44602 131.892 6.25026 131.332 6.25026Z" fill="white"/>
<path d="M140.983 26.3014L140.605 25.9658C140.326 22.9456 140.032 20.1351 139.724 17.5343C139.445 14.9335 139.151 12.4166 138.843 9.98363C138.787 9.39636 138.662 9.00485 138.466 8.80909C138.298 8.61333 138.074 8.51545 137.795 8.51545C137.515 8.51545 137.193 8.6413 136.83 8.89299C136.466 9.11671 136.089 9.42433 135.697 9.81584L135.194 9.31247C136.173 7.9142 137.123 6.8655 138.046 6.16636C138.997 5.46723 139.948 5.11766 140.899 5.11766C141.961 5.11766 142.745 5.4113 143.248 5.99857C143.779 6.58584 144.087 7.52268 144.171 8.80909C144.339 10.5989 144.492 12.5984 144.632 14.8077C144.8 16.989 144.94 19.1563 145.052 21.3096C146.338 18.9605 147.624 16.4996 148.911 13.9268C150.197 11.326 151.512 8.66926 152.854 5.95662H155.413C155.525 6.76762 155.651 7.85827 155.79 9.22857C155.93 10.5989 156.056 12.081 156.168 13.6751C156.308 15.2691 156.448 16.8352 156.587 18.3732C156.727 19.8834 156.853 21.1977 156.965 22.3164C157.944 21.0579 158.811 19.9113 159.566 18.8766C160.349 17.8419 161.132 16.6813 161.915 15.3949C162.362 14.6678 162.656 13.9407 162.796 13.2136C162.936 12.4865 162.866 11.7734 162.586 11.0743L161.873 9.22857C161.453 8.08199 161.495 7.08922 161.999 6.25026C162.53 5.4113 163.257 4.99182 164.18 4.99182C165.075 4.99182 165.732 5.28546 166.152 5.87273C166.599 6.43203 166.823 7.15913 166.823 8.05403C166.823 8.69723 166.669 9.39636 166.361 10.1514C166.082 10.8785 165.564 11.9132 164.809 13.2556C163.747 15.1293 162.376 17.1707 160.698 19.38C159.02 21.5893 157.133 23.7985 155.035 26.0078L152.56 26.3014L152.183 25.9658C151.959 23.7845 151.735 21.6592 151.512 19.5897C151.316 17.5203 151.064 15.2411 150.757 12.7522C149.722 14.9335 148.575 17.1987 147.317 19.5478C146.086 21.8689 144.856 24.0223 143.625 26.0078L140.983 26.3014Z" fill="white"/>
<path d="M168.596 26.5531C167.729 26.5531 167.002 26.3294 166.415 25.8819C165.855 25.4065 165.576 24.7214 165.576 23.8265C165.576 23.2672 165.632 22.6659 165.744 22.0227C165.855 21.3516 165.981 20.6384 166.121 19.8834L169.015 6.62779H165.534L165.66 6.12441L167.17 5.95662C167.953 5.87273 168.638 5.67697 169.225 5.36935C169.812 5.06173 170.372 4.62827 170.903 4.06896L174.93 0H175.559L174.385 5.74688H178.957L178.747 6.62779H174.175L171.281 20.5965C171.169 21.1278 171.085 21.5893 171.029 21.9808C170.973 22.3443 170.945 22.6519 170.945 22.9036C170.945 23.1833 171.029 23.407 171.197 23.5748C171.365 23.7426 171.546 23.8265 171.742 23.8265C172.134 23.8265 172.553 23.6727 173.001 23.3651C173.448 23.0295 174.007 22.5401 174.678 21.8969L175.182 22.3164C174.483 23.3511 173.574 24.3159 172.455 25.2108C171.337 26.1057 170.05 26.5531 168.596 26.5531Z" fill="white"/>
<rect x="85.5752" y="7" width="7.4248" height="7.4248" fill="white"/>
<rect x="85.5752" y="18.1372" width="7.4248" height="7.4248" fill="white"/>
<path d="M9.97458 27.4169C7.89874 27.4169 6.11317 26.9771 4.61786 26.0975C3.13135 25.2091 1.98788 23.9777 1.18745 22.4032C0.395817 20.8287 0 19.0168 0 16.9673C0 14.8915 0.400214 13.0707 1.20064 11.5051C2.00987 9.9306 3.15774 8.70357 4.64425 7.82397C6.13076 6.93559 7.89874 6.49139 9.94819 6.49139C11.7162 6.49139 13.2643 6.81244 14.5924 7.45455C15.9206 8.09665 16.9717 8.99823 17.7458 10.1593C18.5198 11.3204 18.9464 12.6837 19.0256 14.2494H13.7216C13.5721 13.2379 13.1763 12.4242 12.5342 11.8085C11.9009 11.184 11.0697 10.8718 10.0405 10.8718C9.16975 10.8718 8.4089 11.1093 7.75801 11.5842C7.1159 12.0504 6.61454 12.7321 6.2539 13.6293C5.89327 14.5265 5.71295 15.6128 5.71295 16.8882C5.71295 18.1812 5.88887 19.2807 6.24071 20.1866C6.60134 21.0926 7.10711 21.7831 7.75801 22.2581C8.4089 22.7331 9.16975 22.9706 10.0405 22.9706C10.6827 22.9706 11.2588 22.8386 11.7689 22.5747C12.2879 22.3109 12.7145 21.9282 13.0488 21.4269C13.3918 20.9167 13.6161 20.3054 13.7216 19.5929H19.0256C18.9376 21.141 18.5154 22.5044 17.759 23.683C17.0113 24.8529 15.9778 25.7677 14.6584 26.4274C13.339 27.0871 11.7777 27.4169 9.97458 27.4169Z" fill="white"/>
<path d="M29.18 27.4169C27.1305 27.4169 25.3582 26.9815 23.8629 26.1107C22.3763 25.2311 21.2285 24.0085 20.4193 22.4428C19.61 20.8683 19.2054 19.0432 19.2054 16.9673C19.2054 14.8739 19.61 13.0444 20.4193 11.4787C21.2285 9.90421 22.3763 8.68158 23.8629 7.81078C25.3582 6.93119 27.1305 6.49139 29.18 6.49139C31.2294 6.49139 32.9974 6.93119 34.4839 7.81078C35.9792 8.68158 37.1315 9.90421 37.9407 11.4787C38.75 13.0444 39.1546 14.8739 39.1546 16.9673C39.1546 19.0432 38.75 20.8683 37.9407 22.4428C37.1315 24.0085 35.9792 25.2311 34.4839 26.1107C32.9974 26.9815 31.2294 27.4169 29.18 27.4169ZM29.2064 23.0629C30.1388 23.0629 30.9172 22.799 31.5417 22.2713C32.1662 21.7347 32.6368 21.0047 32.9534 20.0811C33.2789 19.1575 33.4416 18.1064 33.4416 16.9278C33.4416 15.7491 33.2789 14.698 32.9534 13.7744C32.6368 12.8508 32.1662 12.1208 31.5417 11.5842C30.9172 11.0477 30.1388 10.7794 29.2064 10.7794C28.2652 10.7794 27.4736 11.0477 26.8315 11.5842C26.1982 12.1208 25.7188 12.8508 25.3934 13.7744C25.0767 14.698 24.9184 15.7491 24.9184 16.9278C24.9184 18.1064 25.0767 19.1575 25.3934 20.0811C25.7188 21.0047 26.1982 21.7347 26.8315 22.2713C27.4736 22.799 28.2652 23.0629 29.2064 23.0629Z" fill="white"/>
<path d="M47.6762 27.3509C46.137 27.3509 44.7428 26.9551 43.4938 26.1635C42.2536 25.3631 41.2684 24.1888 40.5383 22.6407C39.8171 21.0838 39.4565 19.1751 39.4565 16.9146C39.4565 14.5924 39.8303 12.6617 40.5779 11.1224C41.3256 9.57436 42.3195 8.4177 43.5597 7.65245C44.8088 6.87841 46.1765 6.49139 47.663 6.49139C48.7977 6.49139 49.7433 6.6849 50.4997 7.07192C51.265 7.45015 51.8807 7.92513 52.3469 8.49686C52.8219 9.0598 53.1825 9.61395 53.4288 10.1593H53.6003V0H59.2077V27.0211H53.6663V23.7754H53.4288C53.1649 24.3383 52.7911 24.8969 52.3073 25.451C51.8323 25.9964 51.2122 26.4493 50.447 26.81C49.6905 27.1706 48.7669 27.3509 47.6762 27.3509ZM49.4574 22.8782C50.3634 22.8782 51.1286 22.6319 51.7532 22.1393C52.3865 21.638 52.8702 20.9387 53.2045 20.0415C53.5475 19.1443 53.719 18.0932 53.719 16.8882C53.719 15.6831 53.5519 14.6364 53.2177 13.748C52.8834 12.8596 52.3997 12.1736 51.7663 11.6898C51.133 11.206 50.3634 10.9641 49.4574 10.9641C48.5338 10.9641 47.7554 11.2148 47.1221 11.7162C46.4888 12.2175 46.0094 12.9124 45.684 13.8008C45.3585 14.6892 45.1958 15.7183 45.1958 16.8882C45.1958 18.0668 45.3585 19.1091 45.684 20.0151C46.0182 20.9123 46.4976 21.616 47.1221 22.1261C47.7554 22.6275 48.5338 22.8782 49.4574 22.8782Z" fill="white"/>
<path d="M70.4638 27.4169C68.3792 27.4169 66.5848 26.9947 65.0807 26.1503C63.5854 25.2971 62.4331 24.092 61.6239 22.5352C60.8147 20.9695 60.4101 19.1179 60.4101 16.9805C60.4101 14.8959 60.8147 13.0663 61.6239 11.4919C62.4331 9.91741 63.5722 8.69037 65.0411 7.81078C66.5188 6.93119 68.2516 6.49139 70.2395 6.49139C71.5765 6.49139 72.8211 6.70689 73.9734 7.13789C75.1344 7.5601 76.146 8.1978 77.008 9.05101C77.8788 9.90421 78.5561 10.9773 79.0398 12.2703C79.5236 13.5545 79.7655 15.0586 79.7655 16.7826V18.3263H62.653V14.8431H74.4747C74.4747 14.0339 74.2988 13.317 73.947 12.6925C73.5951 12.068 73.107 11.5798 72.4825 11.228C71.8667 10.8674 71.1499 10.687 70.3319 10.687C69.4787 10.687 68.7222 10.885 68.0625 11.2808C67.4116 11.6678 66.9015 12.1912 66.532 12.8508C66.1626 13.5017 65.9735 14.2274 65.9647 15.0278V18.3395C65.9647 19.3422 66.1494 20.2086 66.5188 20.9387C66.897 21.6688 67.4292 22.2317 68.1153 22.6275C68.8014 23.0233 69.615 23.2212 70.5562 23.2212C71.1807 23.2212 71.7524 23.1333 72.2714 22.9574C72.7903 22.7814 73.2345 22.5176 73.6039 22.1657C73.9734 21.8139 74.2548 21.3829 74.4483 20.8727L79.6467 21.2158C79.3829 22.4648 78.8419 23.5555 78.0239 24.4879C77.2147 25.4114 76.168 26.1327 74.8838 26.6516C73.6083 27.1618 72.135 27.4169 70.4638 27.4169Z" fill="white"/>
</svg>
